<mxfile host="app.diagrams.net" modified="2024-05-30T04:02:16.753Z" agent="Mozilla/5.0 (Windows NT 10.0; Win64; x64) AppleWebKit/537.36 (KHTML, like Gecko) Chrome/125.0.0.0 Safari/537.36" version="24.4.10" etag="fEV3uY37BHHcraIa1bYX" type="github">
  <diagram name="Page-1" id="-mPD7jEL7bo5maE6MtQu">
    <mxGraphModel>
      <root>
        <mxCell id="0" />
        <mxCell id="1" parent="0" />
      </root>
    </mxGraphModel>
  </diagram>
</mxfile>
